<?xml version="1.0" encoding="utf-8"?>
<!-- Generator: Adobe Illustrator 27.2.0, SVG Export Plug-In . SVG Version: 6.00 Build 0)  -->
<svg version="1.1" id="Слой_1" xmlns="http://www.w3.org/2000/svg" xmlns:xlink="http://www.w3.org/1999/xlink" x="0px" y="0px"
	 width="87.087px" height="30.69px" viewBox="0 0 87.087 30.69" enable-background="new 0 0 87.087 30.69" xml:space="preserve">
<path fill="#FFFFFF" d="M10.601,0h5.513l10.277,30.69h-5.591l-2.599-7.651H8.435L5.876,30.69H0.285L10.601,0z M17.216,18.846
	L13.357,6.181L9.341,18.846H17.216z"/>
<path fill="#FFFFFF" d="M32.371,0l6.93,11.325L46.192,0h5.906l-9.686,15.561l9.371,15.129h-5.906l-6.576-10.893L32.686,30.69H26.74
	l9.371-15.129L26.425,0H32.371z"/>
<path fill="#EC7979" d="M54.912,30.69V0h5.434v30.69H54.912z"/>
<path fill="#EC7979" d="M87.087,5.23h-8.938v25.46h-5.394V5.23h-8.938V0h23.271V5.23z"/>
</svg>
