<?xml version="1.0" encoding="utf-8"?>
<!-- Generator: Adobe Illustrator 27.2.0, SVG Export Plug-In . SVG Version: 6.00 Build 0)  -->
<svg version="1.1" id="Слой_1" xmlns="http://www.w3.org/2000/svg" xmlns:xlink="http://www.w3.org/1999/xlink" x="0px" y="0px"
	 width="87.087px" height="75px" viewBox="0 0 87.087 75" enable-background="new 0 0 87.087 75" xml:space="preserve">
<path fill="#FFFFFF" d="M10.601,22.456h5.513l10.277,30.69h-5.591l-2.599-7.651H8.435l-2.559,7.651H0.285L10.601,22.456z
	 M17.216,41.302l-3.859-12.665L9.341,41.302H17.216z"/>
<path fill="#FFFFFF" d="M32.371,22.456l6.93,11.325l6.891-11.325h5.906l-9.686,15.561l9.371,15.129h-5.906l-6.576-10.893
	l-6.615,10.893H26.74l9.371-15.129l-9.686-15.561H32.371z"/>
<path fill="#EC7979" d="M54.912,53.146v-30.69h5.434v30.69H54.912z"/>
<path fill="#EC7979" d="M87.087,27.686h-8.938v25.46h-5.394v-25.46h-8.938v-5.23h23.271V27.686z"/>
</svg>
